<svg height="384pt" viewBox="0 0 384 384" width="384pt" xmlns="http://www.w3.org/2000/svg"><path d="m368 272v80c0 8.800781-7.199219 16-16 16h-320c-8.800781 0-16-7.199219-16-16v-80h192v16c0 8.800781 7.199219 16 16 16h32c8.800781 0 16-7.199219 16-16v-16zm0 0" fill="#4dd0e1"/><path d="m368 160v112h-96v-16c0-8.800781-7.199219-16-16-16h-32c-8.800781 0-16 7.199219-16 16v16h-192v-112zm0 0" fill="#e0f7fa"/><path d="m80 64h272c8.800781 0 16 7.199219 16 16v80h-352v-80c0-8.800781 7.199219-16 16-16zm0 0" fill="#4dd0e1"/><path d="m272 272v16c0 8.800781-7.199219 16-16 16h-32c-8.800781 0-16-7.199219-16-16v-32c0-8.800781 7.199219-16 16-16h32c8.800781 0 16 7.199219 16 16zm0 0" fill="#ff7043"/><path d="m352 48h-57.472656c4.664062-9.679688 14.464844-16 25.472656-16 8.832031 0 16-7.167969 16-16s-7.167969-16-16-16c-26.054688 0-49.070312 16.59375-57.246094 41.238281l-2.265625 6.761719h-157.960937c4.664062-9.679688 14.464844-16 25.472656-16 8.832031 0 16-7.167969 16-16s-7.167969-16-16-16c-26.054688 0-49.070312 16.59375-57.246094 41.238281l-2.265625 6.761719h-36.488281c-17.648438 0-32 14.351562-32 32v272c0 17.648438 14.351562 32 32 32h320c17.648438 0 32-14.351562 32-32v-272c0-17.648438-14.351562-32-32-32zm-128 208h32v32h-32zm32-32h-32c-17.648438 0-32 14.351562-32 32h-160v-80h320v80h-64c0-17.648438-14.351562-32-32-32zm-192-144v16c0 8.832031 7.167969 16 16 16s16-7.167969 16-16v-16h160v16c0 8.832031 7.167969 16 16 16s16-7.167969 16-16v-16h64v64h-320v-64zm-32 272v-64h160c0 17.648438 14.351562 32 32 32h32c17.648438 0 32-14.351562 32-32h64v64zm0 0" fill="#012e52"/></svg>