<svg height="384pt" viewBox="0 0 384 384.024" width="384pt" xmlns="http://www.w3.org/2000/svg"><path d="m208.023438 16c88.398437 0 160 71.601562 160 160s-71.601563 160-160 160c-24 0-46.800782-5.28125-67.199219-14.800781l-81.519531 44.722656c-25.679688 9.597656-50.800782-15.523437-41.203126-41.203125l44.722657-81.519531c-9.519531-20.398438-14.800781-43.199219-14.800781-67.199219 0-88.398438 71.601562-160 160-160zm0 0" fill="#4dd0e1"/><g fill="#012e52"><path d="m176.023438 144c8.832031 0 16-7.167969 16-16s-7.167969-16-16-16h-8c-8.832032 0-16 7.167969-16 16s7.167968 16 16 16zm0 0"/><path d="m248.023438 208h-8c-8.832032 0-16 7.167969-16 16s7.167968 16 16 16h8c8.832031 0 16-7.167969 16-16s-7.167969-16-16-16zm0 0"/><path d="m251.335938 132.6875c-6.25-6.246094-16.375-6.246094-22.625 0l-64 64c-6.246094 6.25-6.246094 16.375 0 22.625 3.128906 3.128906 7.214843 4.6875 11.3125 4.6875 4.097656 0 8.183593-1.558594 11.3125-4.6875l64-64c6.246093-6.25 6.246093-16.375 0-22.625zm0 0"/><path d="m208.023438 0c-97.046876 0-176 78.953125-176 176 0 23.089844 4.390624 45.367188 13 66.367188l-40.953126 74.65625c-.367187.671874-.6875 1.375-.949218 2.097656-6.664063 17.824218-2.441406 37.269531 11.039062 50.75 9.253906 9.25 21.328125 14.152344 33.757813 14.152344 5.664062 0 11.417969-1.015626 16.992187-3.113282.722656-.261718 1.425782-.582031 2.097656-.949218l74.65625-40.953126c20.992188 8.601563 43.269532 12.992188 66.359376 12.992188 97.046874 0 176-78.953125 176-176s-78.953126-176-176-176zm0 320c-21.175782 0-41.511719-4.480469-60.441407-13.296875-.375-.175781-.757812-.253906-1.140625-.398437-.496094-.183594-.984375-.382813-1.496094-.519532-.5625-.152344-1.128906-.234375-1.699218-.320312-.453125-.074219-.894532-.152344-1.351563-.183594-.574219-.042969-1.144531-.015625-1.710937.007812-.472656.015626-.9375.023438-1.40625.085938-.554688.074219-1.089844.199219-1.632813.335938-.472656.113281-.9375.210937-1.402343.359374-.574219.195313-1.117188.457032-1.671876.714844-.3125.144532-.640624.230469-.949218.40625l-80.34375 44.082032c-8.449219 2.6875-14.347656-2.363282-15.992188-4.015626-1.65625-1.648437-6.671875-7.554687-4.019531-15.992187l44.082031-80.34375c.183594-.335937.28125-.691406.441406-1.035156.238282-.519531.488282-1.03125.664063-1.566407.167969-.511718.277344-1.023437.398437-1.535156.113282-.488281.230469-.96875.296876-1.472656.070312-.542969.078124-1.082031.09375-1.632812.015624-.488282.042968-.976563.007812-1.472657-.03125-.550781-.125-1.09375-.222656-1.640625-.078125-.46875-.144532-.941406-.273438-1.414062-.160156-.601563-.382812-1.167969-.605468-1.746094-.128907-.316406-.183594-.636719-.335938-.957031-8.808594-18.9375-13.289062-39.273438-13.289062-60.449219 0-79.398438 64.601562-144 144-144 79.398437 0 144 64.601562 144 144s-64.601563 144-144 144zm0 0"/></g></svg>