<svg height="384pt" viewBox="0 0 384 384" width="384pt" xmlns="http://www.w3.org/2000/svg"><path d="m192 16c70.71875 0 128 57.28125 128 128s-128 224-128 224-128-153.28125-128-224 57.28125-128 128-128zm0 0" fill="#4dd0e1"/><g fill="#012e52"><path d="m160 112c8.832031 0 16-7.167969 16-16s-7.167969-16-16-16h-8c-8.832031 0-16 7.167969-16 16s7.167969 16 16 16zm0 0"/><path d="m224 176c-8.832031 0-16 7.167969-16 16s7.167969 16 16 16h8c8.832031 0 16-7.167969 16-16s-7.167969-16-16-16zm0 0"/><path d="m235.3125 100.6875c-6.25-6.246094-16.375-6.246094-22.625 0l-64 64c-6.246094 6.25-6.246094 16.375 0 22.625 3.128906 3.128906 7.214844 4.6875 11.3125 4.6875s8.183594-1.558594 11.3125-4.6875l64-64c6.246094-6.25 6.246094-16.375 0-22.625zm0 0"/><path d="m368 352h-142.632812c37.871093-48.632812 110.632812-149.648438 110.632812-208 0-79.398438-64.601562-144-144-144s-144 64.601562-144 144c0 58.351562 72.761719 159.367188 110.632812 208h-46.632812c-8.832031 0-16 7.167969-16 16s7.167969 16 16 16h256c8.832031 0 16-7.167969 16-16s-7.167969-16-16-16zm-176-320c61.761719 0 112 50.238281 112 112 0 47.726562-72.175781 148.496094-112 198.625-39.824219-50.128906-112-150.898438-112-198.625 0-61.761719 50.238281-112 112-112zm0 0"/><path d="m16 384h32c8.832031 0 16-7.167969 16-16s-7.167969-16-16-16h-32c-8.832031 0-16 7.167969-16 16s7.167969 16 16 16zm0 0"/></g></svg>