<svg height="384pt" viewBox="0 0 384 384.024" width="384pt" xmlns="http://www.w3.org/2000/svg"><path d="m232.011719 16c75.121093 0 136 60.878906 136 136s-60.878907 136-136 136c-20 0-38.960938-4.320312-56-12.078125-30.078125-13.601563-54.320313-37.84375-67.917969-67.921875-7.761719-17.039062-12.082031-36-12.082031-56 0-75.121094 60.878906-136 136-136zm52.640625 172.878906c6.480468.082032 10.320312-7.277344 6.558594-12.558594l-18.480469-26.082031c-1.519531-2.078125-1.917969-4.71875-1.117188-7.117187l10.078125-30.640625c2.082032-6.402344-4.078125-12.320313-10.320312-10.082031l-28.160156 10.320312c-2.558594.882812-5.4375.480469-7.679688-1.199219l-23.597656-18.398437c-5.28125-4.082032-12.960938-.320313-12.882813 6.320312l.160157 32.320313c0 2.558593-1.199219 4.878906-3.199219 6.398437l-25.601563 19.199219c-5.199218 3.839844-3.839844 12 2.402344 14l29.039062 9.199219c2.558594.800781 4.480469 2.882812 5.28125 5.441406l8.640626 29.761719c1.917968 6.558593 10.558593 7.917969 14.320312 2.238281l17.359375-25.679688c1.519531-2.242187 4-3.519531 6.71875-3.519531zm0 0" fill="#4dd0e1"/><path d="m291.210938 176.320312c3.761718 5.28125-.078126 12.640626-6.558594 12.558594l-30.480469-.078125c-2.71875 0-5.199219 1.277344-6.71875 3.519531l-17.359375 25.679688c-3.761719 5.679688-12.402344 4.320312-14.320312-2.238281l-8.640626-29.761719c-.800781-2.558594-2.722656-4.640625-5.28125-5.441406l-29.039062-9.199219c-6.242188-2-7.601562-10.160156-2.402344-14l25.601563-19.199219c2-1.519531 3.199219-3.839844 3.199219-6.398437l-.160157-32.320313c-.078125-6.640625 7.601563-10.402344 12.882813-6.320312l23.597656 18.398437c2.242188 1.679688 5.121094 2.082031 7.679688 1.199219l28.160156-10.320312c6.242187-2.238282 12.402344 3.679687 10.320312 10.082031l-10.078125 30.640625c-.800781 2.398437-.402343 5.039062 1.117188 7.117187zm0 0" fill="#ff7043"/><path d="m176.011719 275.921875-78.078125 78c-18.722656 18.796875-49.121094 18.796875-67.839844 0-9.441406-9.363281-14.082031-21.601563-14.082031-33.921875s4.640625-24.558594 14.082031-33.921875l78-78.078125c13.597656 30.078125 37.839844 54.320312 67.917969 67.921875zm0 0" fill="#ff7043"/><g fill="#012e52"><path d="m232.011719 0c-83.816407 0-152 68.183594-152 152 0 18.023438 3.265625 35.457031 9.375 52.078125l-70.566407 70.640625c-12.128906 12.035156-18.8085932 28.113281-18.8085932 45.28125s6.6796872 33.246094 18.7460932 45.207031c12.078126 12.136719 28.148438 18.816407 45.253907 18.816407s33.175781-6.679688 45.222656-18.785157l70.691406-70.613281c16.628907 6.109375 34.0625 9.375 52.085938 9.375 83.816406 0 152-68.183594 152-152s-68.183594-152-152-152zm-145.414063 342.632812c-6.035156 6.054688-14.050781 9.390626-22.585937 9.390626-8.535157 0-16.550781-3.335938-22.65625-9.464844-6.023438-5.972656-9.34375-13.992188-9.34375-22.558594s3.320312-16.585938 9.398437-22.617188l63.011719-63.070312c11.710937 18.160156 27.125 33.574219 45.277344 45.289062zm145.414063-70.632812c-17.246094 0-33.863281-3.574219-49.40625-10.65625-26.617188-12.039062-47.898438-33.320312-59.9375-59.9375-.007813-.007812-.007813-.023438-.015625-.039062-7.0625-15.503907-10.640625-32.109376-10.640625-49.367188 0-66.167969 53.832031-120 120-120s120 53.832031 120 120-53.832031 120-120 120zm0 0"/><path d="m288.09375 144.238281 8.820312-26.8125c2.859376-8.808593.515626-18.273437-6.125-24.714843-6.625-6.429688-16.136718-8.488282-24.921874-5.335938l-23.992188 8.800781-20.160156-15.710937c-7.34375-5.679688-17.09375-6.640625-25.414063-2.496094-8.28125 4.128906-13.359375 12.421875-13.25 21.558594l.144531 28.25-22.289062 16.71875c-7.246094 5.351562-10.832031 14.207031-9.375 23.113281 1.472656 8.941406 7.753906 16.214844 16.457031 19.007813l24.960938 7.902343 7.480469 25.738281c2.664062 9.09375 10.125 15.621094 19.484374 17.039063 1.234376.183594 2.464844.277344 3.675782.277344 7.957031 0 15.335937-3.910157 19.773437-10.613281l14.96875-22.152344 26.136719.0625c.101562.007812.199219.007812.3125.007812 8.917969 0 17.023438-4.902344 21.175781-12.839844 4.207031-8.039062 3.558594-17.613281-1.671875-24.976562zm-33.921875 28.5625c-8.015625 0-15.480469 3.933594-19.976563 10.558594l-7.816406 11.5625-3.976562-13.683594c-2.375-7.636719-8.269532-13.597656-15.71875-15.933593l-14.199219-4.496094 13.207031-9.914063c6.054688-4.597656 9.519532-11.574219 9.519532-19.214843l-.078126-15.777344 10.78125 8.410156c6.464844 4.847656 14.867188 6.167969 22.507813 3.535156.101563-.03125.191406-.070312.292969-.105468l12.625-4.628907-4.902344 14.917969c-2.449219 7.304688-1.195312 15.394531 3.230469 21.457031l9.464843 13.351563zm0 0"/></g></svg>