<svg height="384pt" viewBox="0 0 384 384.024" width="384pt" xmlns="http://www.w3.org/2000/svg"><path d="m232.011719 16c75.121093 0 136 60.878906 136 136s-60.878907 136-136 136c-20 0-38.960938-4.320312-56-12.078125-30.078125-13.601563-54.320313-37.84375-67.917969-67.921875-7.761719-17.039062-12.082031-36-12.082031-56 0-75.121094 60.878906-136 136-136zm0 0" fill="#4dd0e1"/><path d="m176.011719 275.921875-78.078125 78c-18.722656 18.796875-49.121094 18.796875-67.839844 0-9.441406-9.363281-14.082031-21.601563-14.082031-33.921875s4.640625-24.558594 14.082031-33.921875l78-78.078125c13.597656 30.078125 37.839844 54.320312 67.917969 67.921875zm0 0" fill="#ff7043"/><g fill="#012e52"><path d="m232.011719 0c-83.816407 0-152 68.183594-152 152 0 18.023438 3.265625 35.457031 9.375 52.078125l-70.566407 70.640625c-12.128906 12.035156-18.8085932 28.113281-18.8085932 45.28125s6.6796872 33.246094 18.7460932 45.207031c12.078126 12.136719 28.148438 18.816407 45.253907 18.816407s33.175781-6.679688 45.230469-18.785157l70.691406-70.613281c16.621094 6.109375 34.054687 9.375 52.078125 9.375 83.816406 0 152-68.183594 152-152s-68.183594-152-152-152zm-145.414063 342.632812c-6.035156 6.054688-14.050781 9.390626-22.585937 9.390626-8.535157 0-16.550781-3.335938-22.65625-9.464844-6.023438-5.972656-9.34375-13.992188-9.34375-22.558594s3.320312-16.585938 9.398437-22.617188l63.011719-63.070312c11.710937 18.160156 27.125 33.574219 45.277344 45.28125zm145.414063-70.632812c-17.246094 0-33.863281-3.574219-49.40625-10.65625-26.617188-12.039062-47.90625-33.320312-59.9375-59.9375 0-.007812-.007813-.023438-.015625-.039062-7.0625-15.503907-10.640625-32.121094-10.640625-49.367188 0-66.167969 53.832031-120 120-120s120 53.832031 120 120-53.832031 120-120 120zm0 0"/><path d="m200.011719 120c8.832031 0 16-7.167969 16-16s-7.167969-16-16-16h-8c-8.832031 0-16 7.167969-16 16s7.167969 16 16 16zm0 0"/><path d="m272.011719 184h-8c-8.832031 0-16 7.167969-16 16s7.167969 16 16 16h8c8.832031 0 16-7.167969 16-16s-7.167969-16-16-16zm0 0"/><path d="m275.324219 108.6875c-6.25-6.246094-16.375-6.246094-22.625 0l-64 64c-6.246094 6.25-6.246094 16.375 0 22.625 3.121093 3.128906 7.214843 4.6875 11.3125 4.6875 4.097656 0 8.183593-1.558594 11.3125-4.6875l64-64c6.246093-6.25 6.246093-16.375 0-22.625zm0 0"/></g></svg>