<svg height="384pt" viewBox="0 -64 384 384" width="384pt" xmlns="http://www.w3.org/2000/svg"><path d="m368 48v160c0 17.679688-14.320312 32-32 32h-288c-17.679688 0-32-14.320312-32-32v-160c0-17.679688 14.320312-32 32-32h288c17.679688 0 32 14.320312 32 32zm-136 80c0-22.078125-17.921875-40-40-40s-40 17.921875-40 40 17.921875 40 40 40 40-17.921875 40-40zm0 0" fill="#4dd0e1"/><path d="m232 128c0 22.089844-17.910156 40-40 40s-40-17.910156-40-40 17.910156-40 40-40 40 17.910156 40 40zm0 0" fill="#ff7043"/><g fill="#012e52"><path d="m336 0h-288c-26.472656 0-48 21.527344-48 48v160c0 26.472656 21.527344 48 48 48h288c26.472656 0 48-21.527344 48-48v-160c0-26.472656-21.527344-48-48-48zm16 208c0 8.824219-7.175781 16-16 16h-288c-8.824219 0-16-7.175781-16-16v-160c0-8.824219 7.175781-16 16-16h288c8.824219 0 16 7.175781 16 16zm0 0"/><path d="m192 72c-30.878906 0-56 25.121094-56 56s25.121094 56 56 56 56-25.121094 56-56-25.121094-56-56-56zm0 80c-13.230469 0-24-10.769531-24-24s10.769531-24 24-24 24 10.769531 24 24-10.769531 24-24 24zm0 0"/><path d="m96 112h-8c-8.832031 0-16 7.167969-16 16s7.167969 16 16 16h8c8.832031 0 16-7.167969 16-16s-7.167969-16-16-16zm0 0"/><path d="m296 112h-8c-8.832031 0-16 7.167969-16 16s7.167969 16 16 16h8c8.832031 0 16-7.167969 16-16s-7.167969-16-16-16zm0 0"/></g></svg>