<svg height="384pt" viewBox="0 0 384 384" width="384pt" xmlns="http://www.w3.org/2000/svg"><path d="m368 96v240c0 17.679688-14.320312 32-32 32h-288c-17.679688 0-32-14.320312-32-32v-240zm0 0" fill="#ff7043"/><path d="m368 48v48h-352v-48c0-17.679688 14.320312-32 32-32h288c17.679688 0 32 14.320312 32 32zm0 0" fill="#4dd0e1"/><g fill="#012e52"><path d="m336 0h-288c-26.472656 0-48 21.527344-48 48v288c0 26.472656 21.527344 48 48 48h288c26.472656 0 48-21.527344 48-48v-288c0-26.472656-21.527344-48-48-48zm-288 32h288c8.824219 0 16 7.175781 16 16v32h-320v-32c0-8.824219 7.175781-16 16-16zm288 320h-288c-8.824219 0-16-7.175781-16-16v-224h320v224c0 8.824219-7.175781 16-16 16zm0 0"/><path d="m160 192c8.832031 0 16-7.167969 16-16s-7.167969-16-16-16h-8c-8.832031 0-16 7.167969-16 16s7.167969 16 16 16zm0 0"/><path d="m232 256h-8c-8.832031 0-16 7.167969-16 16s7.167969 16 16 16h8c8.832031 0 16-7.167969 16-16s-7.167969-16-16-16zm0 0"/><path d="m235.3125 180.6875c-6.25-6.246094-16.375-6.246094-22.625 0l-64 64c-6.246094 6.25-6.246094 16.375 0 22.625 3.128906 3.128906 7.214844 4.6875 11.3125 4.6875s8.183594-1.558594 11.3125-4.6875l64-64c6.246094-6.25 6.246094-16.375 0-22.625zm0 0"/></g></svg>