<svg height="383pt" viewBox="0 0 383 383.96" width="383pt" xmlns="http://www.w3.org/2000/svg"><path d="m368.4375 48v113.121094c0 8.480468-3.363281 16.640625-9.363281 22.640625l-174.878907 174.878906c-12.480468 12.480469-32.71875 12.480469-45.28125 0l-113.117187-113.121094c-12.480469-12.558593-12.480469-32.800781 0-45.28125l174.878906-174.878906c6-6 14.160157-9.359375 22.640625-9.359375h113.121094c17.679688 0 32 14.320312 32 32zm-65.363281 82.878906c12.242187-12.238281 12.480469-32.078125.640625-44.640625l-4.078125-4.238281c-12.320313-13.121094-33.121094-13.359375-45.839844-.640625-12.242187 12.242187-12.480469 32-.640625 44.640625l4.078125 4.238281c6.242187 6.640625 14.722656 10 23.203125 10 8.238281 0 16.398438-3.117187 22.636719-9.359375zm0 0" fill="#4dd0e1"/><g fill="#012e52"><path d="m336.4375 0h-113.121094c-12.65625 0-25.023437 5.121094-33.953125 14.046875l-174.878906 174.882813c-18.664063 18.664062-18.679687 49.101562 0 67.910156l113.152344 113.152344c9.375 9.3125 21.664062 13.96875 33.941406 13.96875 12.296875 0 24.59375-4.671876 33.929687-14.007813l174.878907-174.882813c8.929687-8.917968 14.050781-21.292968 14.050781-33.949218v-113.121094c0-26.472656-21.53125-48-48-48zm16 161.121094c0 4.230468-1.707031 8.351562-4.671875 11.328125l-174.882813 174.878906c-6.222656 6.214844-16.40625 6.199219-22.65625 0l-113.078124-113.082031c-6.25-6.285156-6.265626-16.46875-.039063-22.695313l174.878906-174.878906c2.96875-2.96875 7.097657-4.671875 11.328125-4.671875h113.121094c8.824219 0 16 7.175781 16 16zm0 0"/><path d="m311.300781 71.046875c-8.921875-9.503906-21.03125-14.847656-34.105469-15.054687-13.222656-.214844-25.449218 4.785156-34.710937 14.054687-18.425781 18.433594-18.863281 47.816406-.847656 67.050781l3.941406 4.09375c8.984375 9.5625 21.691406 15.046875 34.859375 15.046875 12.839844 0 24.894531-4.992187 33.949219-14.046875 18.183593-18.175781 18.617187-48.199218.847656-67.046875zm-19.535156 48.519531c-6.136719 6.128906-16.832031 6.144532-23-.421875l-3.929687-4.082031c-5.992188-6.398438-5.871094-16.230469.28125-22.390625 3.085937-3.085937 7.398437-4.609375 11.582031-4.679687 4.335937.070312 8.335937 1.832031 11.417969 5.113281l3.957031 4.109375c5.898437 6.257812 5.753906 16.28125-.308594 22.351562zm0 0"/><path d="m140.066406 173.433594 7.679688 2.398437c1.59375.496094 3.195312.726563 4.777344.726563 6.816406 0 13.128906-4.382813 15.273437-11.230469 2.632813-8.433594-2.074219-17.40625-10.503906-20.039063l-7.679688-2.402343c-8.472656-2.648438-17.410156 2.074219-20.042969 10.503906-2.628906 8.433594 2.058594 17.410156 10.496094 20.042969zm0 0"/><path d="m196.820312 258.574219-7.679687-2.40625c-8.433594-2.640625-17.410156 2.046875-20.054687 10.488281-2.640626 8.433594 2.054687 17.40625 10.484374 20.046875l7.683594 2.410156c1.589844.503907 3.199219.742188 4.789063.742188 6.808593 0 13.121093-4.382813 15.265625-11.222657 2.640625-8.441406-2.054688-17.417968-10.488282-20.058593zm0 0"/><path d="m201.234375 180.992188-80.320313 41.59375c-7.839843 4.070312-10.910156 13.71875-6.847656 21.566406 2.839844 5.496094 8.433594 8.640625 14.21875 8.640625 2.480469 0 5-.578125 7.34375-1.792969l80.320313-41.601562c7.839843-4.0625 10.910156-13.71875 6.847656-21.566407-4.058594-7.847656-13.722656-10.902343-21.5625-6.839843zm0 0"/></g></svg>