<svg height="384pt" viewBox="0 0 384 384.016" width="384pt" xmlns="http://www.w3.org/2000/svg"><path d="m368.007812 32v32c0 8.800781-7.199218 16-16 16h-320c-8.800781 0-16-7.199219-16-16v-32c0-8.800781 7.199219-16 16-16h320c8.800782 0 16 7.199219 16 16zm0 0" fill="#4dd0e1"/><path d="m320.007812 80v272c0 13.121094-15.039062 20.71875-25.601562 12.800781l-92.796875-73.601562c-5.679687-4.238281-13.519531-4.238281-19.203125 0l-92.796875 73.601562c-10.5625 7.917969-25.601563.320313-25.601563-12.800781v-272zm0 0" fill="#ff7043"/><g fill="#012e52"><path d="m352.007812 0h-320c-17.648437 0-31.9999995 14.351562-31.9999995 32v32c0 17.648438 14.3515625 32 31.9999995 32h16v256c0 12.183594 6.785157 23.152344 17.703126 28.609375 10.914062 5.453125 23.746093 4.300781 33.839843-3.273437l92.121094-73.601563 93.144531 73.867187c5.664063 4.246094 12.375 6.414063 19.144532 6.414063 4.871093 0 9.78125-1.128906 14.351562-3.40625 10.910156-5.457031 17.695312-16.425781 17.695312-28.609375v-256h16c17.648438 0 32-14.351562 32-32v-32c0-17.648438-14.351562-32-32-32zm-140.832031 278.375c-5.601562-4.175781-12.296875-6.277344-19.046875-6.277344-6.863281 0-13.792968 2.175782-19.664062 6.566406l-92.457032 73.335938v-256h224.023438l.320312 256.265625zm140.832031-214.375h-320v-32h320zm0 0"/><path d="m160.007812 160c8.832032 0 16-7.167969 16-16s-7.167968-16-16-16h-8c-8.832031 0-16 7.167969-16 16s7.167969 16 16 16zm0 0"/><path d="m232.007812 224h-8c-8.832031 0-16 7.167969-16 16s7.167969 16 16 16h8c8.832032 0 16-7.167969 16-16s-7.167968-16-16-16zm0 0"/><path d="m235.320312 148.6875c-6.25-6.246094-16.375-6.246094-22.625 0l-64 64c-6.246093 6.25-6.246093 16.375 0 22.625 3.121094 3.128906 7.214844 4.6875 11.3125 4.6875 4.097657 0 8.191407-1.558594 11.3125-4.6875l64-64c6.246094-6.25 6.246094-16.375 0-22.625zm0 0"/></g></svg>