<svg height="384pt" viewBox="0 0 384 384" width="384pt" xmlns="http://www.w3.org/2000/svg"><path d="m80 96c0 17.679688-14.320312 32-32 32-8.800781 0-16.800781-3.601562-22.640625-9.359375-5.757813-5.839844-9.359375-13.839844-9.359375-22.640625l16-80h320l16 80c0 17.679688-14.320312 32-32 32-8.800781 0-16.800781-3.601562-22.640625-9.359375-5.757813-5.839844-9.359375-13.839844-9.359375-22.640625 0 17.679688-14.320312 32-32 32h-8c-17.679688 0-32-14.320312-32-32v-8c0 22.078125-17.921875 40-40 40-11.039062 0-21.039062-4.480469-28.320312-11.679688-7.199219-7.28125-11.679688-17.28125-11.679688-28.320312v8c0 17.679688-14.320312 32-32 32h-8c-17.679688 0-32-14.320312-32-32zm0 0" fill="#ff7043"/><path d="m336 128v208c0 17.679688-14.320312 32-32 32h-56v-128c0-17.679688-14.320312-32-32-32h-48c-17.679688 0-32 14.320312-32 32v128h-56c-17.679688 0-32-14.320312-32-32v-208c17.679688 0 32-14.320312 32-32 0 17.679688 14.320312 32 32 32h8c17.679688 0 32-14.320312 32-32v-8c0 11.039062 4.480469 21.039062 11.679688 28.320312 7.28125 7.199219 17.28125 11.679688 28.320312 11.679688 22.078125 0 40-17.921875 40-40v8c0 17.679688 14.320312 32 32 32h8c17.679688 0 32-14.320312 32-32 0 8.800781 3.601562 16.800781 9.359375 22.640625 5.839844 5.757813 13.839844 9.359375 22.640625 9.359375zm0 0" fill="#4dd0e1"/><path d="m248 240v128h-112v-128c0-17.679688 14.320312-32 32-32h48c17.679688 0 32 14.320312 32 32zm0 0" fill="#e0f7fa"/><path d="m367.6875 12.863281c-1.496094-7.480469-8.0625-12.863281-15.6875-12.863281h-320c-7.625 0-14.191406 5.382812-15.6875 12.863281l-16 80c-.207031 1.03125-.3125 2.082031-.3125 3.136719 0 12.710938 4.960938 24.734375 14.128906 34.03125 5.160156 5.089844 11.261719 8.832031 17.871094 11.167969v194.800781c0 26.472656 21.527344 48 48 48h224c26.472656 0 48-21.527344 48-48v-194.800781c18.617188-6.605469 32-24.34375 32-45.199219 0-1.054688-.105469-2.105469-.3125-3.136719zm-322.566406 19.136719h293.757812l13.066406 65.320312c-.671874 8.199219-7.570312 14.679688-15.945312 14.679688-4.246094 0-8.296875-1.6875-11.246094-4.59375-3.066406-3.109375-4.753906-7.160156-4.753906-11.40625v-16c0-8.832031-7.167969-16-16-16s-16 7.167969-16 16v16c0 8.824219-7.175781 16-16 16h-8c-8.824219 0-16-7.175781-16-16v-16c0-8.832031-7.167969-16-16-16s-16 7.167969-16 16v8c0 13.230469-10.769531 24-24 24-6.40625 0-12.472656-2.503906-16.945312-6.929688-4.550782-4.597656-7.054688-10.664062-7.054688-17.070312v-8c0-8.832031-7.167969-16-16-16s-16 7.167969-16 16v16c0 8.824219-7.175781 16-16 16h-8c-8.824219 0-16-7.175781-16-16v-16c0-8.832031-7.167969-16-16-16s-16 7.167969-16 16v16c0 8.824219-7.175781 16-16 16-4.246094 0-8.296875-1.6875-11.246094-4.59375-2.753906-2.78125-4.394531-6.328125-4.699218-10.09375zm186.878906 320h-80v-112c0-8.824219 7.175781-16 16-16h48c8.824219 0 16 7.175781 16 16zm72 0h-40v-112c0-26.472656-21.527344-48-48-48h-48c-26.472656 0-48 21.527344-48 48v112h-40c-8.824219 0-16-7.175781-16-16v-194.800781c5.96875-2.121094 11.375-5.375 16-9.519531 8.503906 7.632812 19.695312 12.320312 32 12.320312h8c13.472656 0 25.640625-5.59375 34.367188-14.558594 10.375 9.375 23.617187 14.558594 37.632812 14.558594 14.472656 0 27.640625-5.566406 37.585938-14.609375 8.734374 8.992187 20.917968 14.609375 34.414062 14.609375h8c12.289062 0 23.480469-4.679688 31.976562-12.304688 4.75 4.234376 10.175782 7.441407 16.023438 9.511719v194.792969c0 8.824219-7.175781 16-16 16zm0 0" fill="#012e52"/></svg>