<svg height="384pt" viewBox="0 0 384 384.00971" width="384pt" xmlns="http://www.w3.org/2000/svg"><path d="m248.003906 88.007812v48c0 4-.71875 7.921876-2.160156 11.441407-4.558594 12.082031-16.238281 20.558593-29.839844 20.558593h-48c-13.597656 0-25.277344-8.476562-29.839844-20.558593-1.4375-3.519531-2.160156-7.441407-2.160156-11.441407v-48c0-4 .722656-7.917968 2.160156-11.4375 4.5625-12.082031 16.242188-20.5625 29.839844-20.5625h48c13.601563 0 25.28125 8.480469 29.839844 20.5625 1.441406 3.519532 2.160156 7.4375 2.160156 11.4375zm0 0" fill="#ff7043"/><path d="m368.003906 32.007812v160c0 11.84375-12.480468 19.601563-23.117187 14.320313l-72.882813-43.359375-26.160156-15.519531c1.441406-3.519531 2.160156-7.441407 2.160156-11.441407v-48c0-4-.71875-7.917968-2.160156-11.4375l99.042969-58.878906c10.636719-5.28125 23.117187 2.476563 23.117187 14.316406zm0 0" fill="#ff7043"/><path d="m272.003906 162.96875v193.601562c0 9.121094-10.160156 14.558594-17.757812 9.519532l-23.921875-15.921875c-3.839844-2.558594-8.800781-2.558594-12.640625 0l-9.679688 6.402343v-188.5625h8c13.601563 0 25.28125-8.476562 29.839844-20.558593zm0 0" fill="#4dd0e1"/><path d="m208.003906 168.007812v188.5625c0 9.121094-10.160156 14.558594-17.757812 9.519532l-30.242188-20.160156-30.238281 20.160156c-7.601563 5.039062-17.761719-.398438-17.761719-9.519532v-193.601562l26.160156-15.519531c4.5625 12.082031 16.242188 20.558593 29.839844 20.558593zm0 0" fill="#4dd0e1"/><path d="m39.125 17.691406 99.039062 58.878906c-1.4375 3.519532-2.160156 7.4375-2.160156 11.4375v48c0 4 .722656 7.921876 2.160156 11.441407l-26.160156 15.519531-72.878906 43.359375c-10.640625 5.28125-23.121094-2.476563-23.121094-14.320313v-160c0-11.839843 12.480469-19.597656 23.121094-14.316406zm0 0" fill="#ff7043"/><path d="m368.859375 4.832031c-9.460937-5.871093-21.09375-6.429687-31.085937-1.46875-.367188.175781-.71875.367188-1.074219.574219l-86.015625 51.136719c-8.878906-9.335938-21.328125-15.066407-34.679688-15.066407h-48c-13.398437 0-25.878906 5.769532-34.726562 15.042969l-85.976563-51.113281c-.351562-.207031-.703125-.398438-1.070312-.574219-9.992188-4.960937-21.617188-4.402343-31.089844 1.46875-9.480469 5.875-15.13671875 16.035157-15.13671875 27.175781v160c0 11.144532 5.65624975 21.304688 15.14453175 27.179688 5.175781 3.214844 11 4.832031 16.847656 4.832031 4.839844 0 9.710937-1.121093 14.234375-3.363281.367187-.175781.726562-.375 1.070312-.582031l48.703125-28.945313v165.441406c0 10.121094 5.535156 19.382813 14.464844 24.167969 8.910156 4.785157 19.695312 4.28125 28.167969-1.335937l21.367187-14.242188 21.402344 14.265625c4.582031 3.046875 9.863281 4.582031 15.167969 4.582031 4.445312 0 8.894531-1.078124 12.964843-3.261718 5.898438-3.160156 10.265626-8.296875 12.585938-14.328125l1.863281-1.230469 21.410157 14.238281c4.582031 3.046875 9.863281 4.582031 15.167968 4.582031 4.445313 0 8.894532-1.078124 12.964844-3.261718 8.9375-4.792969 14.472656-14.054688 14.472656-24.175782v-165.441406l48.703125 28.953125c.347657.207031.707031.398438 1.074219.582031 4.519531 2.25 9.390625 3.363282 14.230469 3.363282 5.847656 0 11.671875-1.625 16.847656-4.832032 9.488281-5.882812 15.144531-16.042968 15.144531-27.1875v-160c0-11.140624-5.65625-21.300781-15.144531-27.175781zm-200.855469 67.175781h48c6.59375 0 12.570313 4.105469 14.871094 10.210938.058594.136719.105469.261719.160156.398438.632813 1.550781.96875 3.417968.96875 5.390624v48c0 1.976563-.335937 3.84375-1.128906 5.792969-2.300781 6.105469-8.277344 10.207031-14.871094 10.207031h-48c-6.589844 0-12.566406-4.101562-15.03125-10.605468-.632812-1.550782-.96875-3.417969-.96875-5.394532v-48c0-1.972656.335938-3.839843 1.128906-5.789062 2.304688-6.105469 8.28125-10.210938 14.871094-10.210938zm-136 119.9375v-159.871093l88.320313 52.503906c-.078125 1.152344-.320313 2.253906-.320313 3.429687v48c0 1.1875.234375 2.28125.3125 3.433594l-17.246094 10.257813c-.007812 0-.007812.007812-.015624.007812zm136.871094 140.671876c-5.375-3.582032-12.375-3.582032-17.75 0l-23.121094 15.417968v-175.929687l5.3125-3.160157c8.886719 9.335938 21.335938 15.0625 34.6875 15.0625h24v164.027344zm87.128906 15.425781-16.816406-11.191407c-4.613281-3.074218-9.902344-4.609374-15.183594-4.609374v-148.960938c10.328125-1.765625 19.671875-6.917969 26.738282-14.3125l5.261718 3.136719zm96-156.097657-88.320312-52.503906c.082031-1.152344.320312-2.253906.320312-3.433594v-48c0-1.175781-.230468-2.277343-.3125-3.429687l88.3125-52.503906zm0 0" fill="#012e52"/></svg>