<svg height="384pt" viewBox="0 -48 384 384" width="384pt" xmlns="http://www.w3.org/2000/svg"><path d="m368 32v224c0 8.800781-7.199219 16-16 16h-320c-8.800781 0-16-7.199219-16-16v-224c0-8.800781 7.199219-16 16-16h320c8.800781 0 16 7.199219 16 16zm0 0" fill="#4dd0e1"/><g fill="#012e52"><path d="m352 0h-320c-17.648438 0-32 14.351562-32 32v224c0 17.648438 14.351562 32 32 32h320c17.648438 0 32-14.351562 32-32v-224c0-17.648438-14.351562-32-32-32zm-320 32v-16zm320 224h-320l.046875-224h319.953125zm0 0"/><path d="m80 232c8.832031 0 16-7.167969 16-16v-144c0-8.832031-7.167969-16-16-16s-16 7.167969-16 16v144c0 8.832031 7.167969 16 16 16zm0 0"/><path d="m136 144c8.832031 0 16-7.167969 16-16v-56c0-8.832031-7.167969-16-16-16s-16 7.167969-16 16v56c0 8.832031 7.167969 16 16 16zm0 0"/><path d="m136 232c8.832031 0 16-7.167969 16-16v-32c0-8.832031-7.167969-16-16-16s-16 7.167969-16 16v32c0 8.832031 7.167969 16 16 16zm0 0"/><path d="m192 208c8.832031 0 16-7.167969 16-16v-120c0-8.832031-7.167969-16-16-16s-16 7.167969-16 16v120c0 8.832031 7.167969 16 16 16zm0 0"/><path d="m248 168c8.832031 0 16-7.167969 16-16v-80c0-8.832031-7.167969-16-16-16s-16 7.167969-16 16v80c0 8.832031 7.167969 16 16 16zm0 0"/><path d="m248 232c8.832031 0 16-7.167969 16-16v-8c0-8.832031-7.167969-16-16-16s-16 7.167969-16 16v8c0 8.832031 7.167969 16 16 16zm0 0"/><path d="m304 232c8.832031 0 16-7.167969 16-16v-144c0-8.832031-7.167969-16-16-16s-16 7.167969-16 16v144c0 8.832031 7.167969 16 16 16zm0 0"/></g></svg>