<svg height="383pt" viewBox="-16 0 383 383.992" width="383pt" xmlns="http://www.w3.org/2000/svg"><path d="m320.476562 208c14.5625 0 21.523438 18 10.722657 27.839844l-143.921875 128c-6.160156 5.519531-15.4375 5.519531-21.597656 0l-143.921876-128c-10.800781-9.839844-3.839843-27.839844 10.71875-27.839844h24c8.800782 0 16-7.199219 16-16v-160c0-8.800781 7.203126-16 16-16h176c8.800782 0 16 7.199219 16 16v160c0 8.800781 7.203126 16 16 16zm0 0" fill="#4dd0e1"/><g fill="#012e52"><path d="m155 375.753906c6.125 5.492188 13.8125 8.238282 21.492188 8.238282 7.664062 0 15.320312-2.734376 21.417968-8.191407l144.0625-128.128906c9.847656-8.96875 13.113282-22.800781 8.296875-35.230469-4.816406-12.425781-16.503906-20.441406-29.792969-20.441406h-24v-160c0-17.648438-14.351562-32-32-32h-176c-17.644531 0-32 14.351562-32 32v160h-24c-13.285156 0-24.972656 8.015625-29.789062 20.433594-4.816406 12.429687-1.554688 26.261718 8.4375 35.359375zm-98.523438-151.753906c17.648438 0 32-14.351562 32-32v-160h176v160c0 17.648438 14.355469 32 32 32l24.089844-.121094-144.25 128-143.839844-127.878906zm0 0"/><path d="m192.476562 288v-10.359375c23.105469-6.90625 40-28.328125 40-53.640625 0-30.878906-25.125-56-56-56-13.230468 0-24-10.769531-24-24s10.769532-24 24-24c13.234376 0 24 10.769531 24 24 0 8.832031 7.167969 16 16 16 8.832032 0 16-7.167969 16-16 0-25.320312-16.894531-46.734375-40-53.640625v-10.359375c0-8.832031-7.167968-16-16-16-8.832031 0-16 7.167969-16 16v10.359375c-23.09375 6.90625-40 28.328125-40 53.640625 0 30.878906 25.128907 56 56 56 13.234376 0 24 10.769531 24 24s-10.765624 24-24 24c-13.230468 0-24-10.769531-24-24 0-8.832031-7.167968-16-16-16-8.832031 0-16 7.167969-16 16 0 25.320312 16.90625 46.734375 40 53.640625v10.359375c0 8.832031 7.167969 16 16 16 8.832032 0 16-7.167969 16-16zm0 0"/></g></svg>