<svg height="383pt" viewBox="-16 0 383 383.992" width="383pt" xmlns="http://www.w3.org/2000/svg"><path d="m320.472656 208c14.558594 0 21.519532 18 10.71875 27.839844l-143.917968 128c-6.160157 5.519531-15.441407 5.519531-21.601563 0l-143.921875-128c-10.796875-9.839844-3.839844-27.839844 10.722656-27.839844h24c8.800782 0 16-7.199219 16-16v-160c0-8.800781 7.199219-16 16-16h176c8.800782 0 16 7.199219 16 16v160c0 8.800781 7.199219 16 16 16zm0 0" fill="#4dd0e1"/><g fill="#012e52"><path d="m264.472656 0h-176c-17.648437 0-32 14.351562-32 32v160h-24c-13.289062 0-24.976562 8.015625-29.785156 20.433594-4.816406 12.429687-1.558594 26.261718 8.433594 35.367187l143.878906 127.96875c6.128906 5.488281 13.808594 8.222657 21.488281 8.222657 7.664063 0 15.328125-2.734376 21.414063-8.191407l144.066406-128.128906c9.847656-8.976563 13.101562-22.816406 8.289062-35.238281-4.808593-12.417969-16.496093-20.433594-29.785156-20.433594h-24v-160c0-17.648438-14.351562-32-32-32zm56.085938 223.886719-144.253906 128-143.832032-127.886719h24c17.648438 0 32-14.351562 32-32v-160h176v160c0 17.648438 14.351563 32 32 32zm0 0"/><path d="m144.472656 128c8.832032 0 16-7.167969 16-16s-7.167968-16-16-16h-8c-8.832031 0-16 7.167969-16 16s7.167969 16 16 16zm0 0"/><path d="m216.472656 192h-8c-8.832031 0-16 7.167969-16 16s7.167969 16 16 16h8c8.832032 0 16-7.167969 16-16s-7.167968-16-16-16zm0 0"/><path d="m219.785156 116.6875c-6.242187-6.246094-16.386718-6.246094-22.625 0l-64 64c-6.25 6.25-6.25 16.375 0 22.625 3.121094 3.128906 7.214844 4.6875 11.3125 4.6875 4.09375 0 8.191406-1.558594 11.3125-4.6875l64-64c6.246094-6.25 6.246094-16.375 0-22.625zm0 0"/></g></svg>