<svg height="384pt" viewBox="0 0 384.01919 384" width="384pt" xmlns="http://www.w3.org/2000/svg"><path d="m325.929688 95.777344c37.519531-1.917969 56.71875 44.402344 28.800781 69.601562l-29.523438 26.640625 29.523438 26.640625c27.917969 25.199219 8.71875 71.519532-28.800781 69.597656l-39.761719-2.078124 2.082031 39.757812c1.917969 37.519531-44.402344 56.722656-69.601562 28.800781l-26.640626-29.519531-26.640624 29.519531c-25.199219 27.921875-71.519532 8.71875-69.597657-28.800781l2.078125-39.757812-39.757812 2.078124c-37.519532 1.921876-56.722656-44.398437-28.800782-69.597656l29.519532-26.640625-29.519532-26.640625c-27.921874-25.199218-8.71875-71.519531 28.800782-69.601562l39.757812 2.082031-2.078125-39.761719c-1.921875-37.519531 44.398438-56.71875 69.597657-28.800781l26.640624 29.519531 26.640626-29.519531c25.199218-27.917969 71.519531-8.71875 69.601562 28.800781l-2.082031 39.761719zm0 0" fill="#4dd0e1"/><g fill="#012e52"><path d="m4.367188 269.753906c9.175781 22.167969 30.625 35.832032 54.554687 34.488282l22.023437-1.160157-1.160156 22.046875c-1.222656 23.945313 12.3125 45.351563 34.488282 54.53125 22.167968 9.167969 46.894531 3.605469 62.96875-14.203125l14.765624-16.351562 14.769532 16.351562c10.925781 12.121094 25.855468 18.570313 41.269531 18.570313 7.242187 0 14.601563-1.433594 21.699219-4.367188 22.167968-9.179687 35.710937-30.585937 34.488281-54.554687l-1.160156-22.023438 22.046875 1.160157c23.863281 1.320312 45.351562-12.3125 54.527344-34.488282 9.183593-22.175781 3.609374-46.886718-14.199219-62.96875l-16.351563-14.765625 16.351563-14.769531c17.816406-16.078125 23.390625-40.792969 14.199219-62.96875-9.175782-22.167969-30.589844-35.765625-54.550782-34.488281l-22.023437 1.160156 1.160156-22.046875c1.222656-23.945312-12.3125-45.351562-34.488281-54.527344-22.175782-9.183594-46.898438-3.617187-62.96875 14.199219l-14.769532 16.351563-14.765624-16.351563c-16.066407-17.808594-40.777344-23.390625-62.96875-14.199219-22.167969 9.175782-35.710938 30.582032-34.488282 54.550782l1.160156 22.023437-22.046874-1.160156c-23.859376-1.34375-45.355469 12.3125-54.53125 34.488281-9.183594 22.175781-3.605469 46.890625 14.203124 62.96875l16.351563 14.769531-16.351563 14.765625c-17.808593 16.074219-23.394531 40.785156-14.203124 62.96875zm35.640624-39.222656 29.511719-26.640625c3.359375-3.03125 5.28125-7.34375 5.28125-11.871094 0-4.527343-1.921875-8.839843-5.28125-11.875l-29.511719-26.636719c-9.253906-8.363281-9.207031-19.417968-6.078124-26.976562 3.136718-7.554688 10.839843-15.386719 23.320312-14.777344l39.765625 2.089844c4.503906.253906 8.945313-1.457031 12.152344-4.664062 3.207031-3.203126 4.90625-7.625 4.664062-12.152344l-2.085937-39.746094c-.632813-12.4375 7.214844-20.207031 14.773437-23.34375 7.5625-3.128906 18.617188-3.167969 26.976563 6.082031l26.640625 29.511719c6.0625 6.71875 17.6875 6.71875 23.753906 0l26.628906-29.511719c8.34375-9.265625 19.410157-9.210937 26.976563-6.082031 7.550781 3.136719 15.410156 10.90625 14.777344 23.320312l-2.089844 39.769532c-.238282 4.519531 1.457031 8.941406 4.664062 12.152344 3.210938 3.207031 7.671875 4.910156 12.152344 4.664062l39.746094-2.089844c12.550781-.574218 20.207031 7.214844 23.34375 14.777344 3.136718 7.558594 3.175781 18.613281-6.082032 26.976562l-29.511718 26.636719c-3.359375 3.035157-5.28125 7.347657-5.28125 11.875 0 4.527344 1.921875 8.839844 5.28125 11.871094l29.511718 26.640625c9.257813 8.359375 9.207032 19.414062 6.082032 26.976562-3.144532 7.550782-10.90625 15.351563-23.320313 14.773438l-39.769531-2.085938c-4.472656-.242187-8.933594 1.464844-12.152344 4.664063-3.214844 3.199219-4.902344 7.621094-4.664062 12.152344l2.089844 39.742187c.632812 12.441406-7.214844 20.207032-14.777344 23.34375-7.566406 3.128906-18.625 3.167969-26.976563-6.078125l-26.640625-29.511719c-3.03125-3.363281-7.34375-5.28125-11.871094-5.28125-4.527343 0-8.839843 1.917969-11.871093 5.28125l-26.640625 29.511719c-8.359375 9.253907-19.414063 9.199219-26.976563 6.078125-7.550781-3.136718-15.40625-10.902344-14.773437-23.320312l2.085937-39.765625c.242188-4.519531-1.457031-8.945313-4.664062-12.152344-3.199219-3.199219-7.648438-4.914063-12.152344-4.664063l-39.742187 2.085938c-12.464844.609375-20.207032-7.214844-23.34375-14.773438-3.128907-7.5625-3.175782-18.617187 6.078124-26.976562zm0 0"/><path d="m152.007812 160.019531h8c8.832032 0 16-7.167969 16-16s-7.167968-16-16-16h-8c-8.832031 0-16 7.167969-16 16s7.167969 16 16 16zm0 0"/><path d="m224.007812 224.019531c-8.832031 0-16 7.167969-16 16s7.167969 16 16 16h8c8.832032 0 16-7.167969 16-16s-7.167968-16-16-16zm0 0"/><path d="m148.695312 235.332031c3.128907 3.125 7.21875 4.6875 11.3125 4.6875 4.097657 0 8.183594-1.5625 11.3125-4.6875l64-64c6.25-6.25 6.25-16.378906 0-22.625-6.246093-6.25-16.375-6.25-22.625 0l-64 64c-6.246093 6.246094-6.246093 16.375 0 22.625zm0 0"/></g></svg>