<svg height="384pt" viewBox="0 -48 384 384" width="384pt" xmlns="http://www.w3.org/2000/svg"><g fill="#4dd0e1"><path d="m160.078125 120.078125c1.84375 1.921875 30.800781 31.921875 47.921875 31.921875 17.679688 0 32-14.320312 32-32h128v104c0 26.480469-21.519531 48-48 48h-160v-152zm0 0"/><path d="m368 64v56h-128c0-17.679688-14.320312-32-32-32s-48 32-48 32v-104h160c26.480469 0 48 21.519531 48 48zm0 0"/><path d="m208 88c17.679688 0 32 14.320312 32 32s-14.320312 32-32 32c-17.121094 0-46.078125-30-47.921875-31.921875l-.078125-.078125s30.320312-32 48-32zm0 0"/></g><path d="m159.921875 120.078125.078125-.078125v152h-96c-26.480469 0-48-21.519531-48-48v-104h64c0 17.679688 14.320312 32 32 32 17.121094 0 46.078125-30 47.921875-31.921875zm0 0" fill="#ff7043"/><path d="m160 16v104s-30.320312-32-48-32-32 14.320312-32 32h-64v-56c0-26.480469 21.519531-48 48-48zm0 0" fill="#ff7043"/><path d="m160 120-.078125.078125c-1.84375 1.921875-30.800781 31.921875-47.921875 31.921875-17.679688 0-32-14.320312-32-32s14.320312-32 32-32 48 32 48 32zm0 0" fill="#ff7043"/><path d="m320 0h-256c-35.289062 0-64 28.710938-64 64v160c0 35.289062 28.710938 64 64 64h256c35.289062 0 64-28.710938 64-64v-160c0-35.289062-28.710938-64-64-64zm32 64v40h-98.800781c-6.605469-18.617188-24.34375-32-45.199219-32-10.289062 0-21.753906 5.785156-32 12.921875v-52.921875h144c17.648438 0 32 14.351562 32 32zm-240 72c-8.824219 0-16-7.175781-16-16s7.175781-16 15.96875-16c4.183594.199219 14.550781 7.089844 24.863281 16.007812-11.015625 9.59375-20.984375 15.808594-24.832031 15.992188zm71.167969-16c10.289062-8.921875 20.65625-15.800781 24.832031-16 8.824219 0 16 7.175781 16 16s-7.175781 16-15.96875 16c-3.871094-.183594-13.855469-6.40625-24.863281-16zm-119.167969-88h80v52.921875c-10.246094-7.136719-21.710938-12.921875-32-12.921875-20.855469 0-38.59375 13.382812-45.199219 32h-34.800781v-40c0-17.648438 14.351562-32 32-32zm-32 192v-88h34.800781c6.457031 18.167969 23.519531 31.3125 43.726563 31.929688l-20.023438 31.484374c-4.742187 7.457032-2.542968 17.347657 4.910156 22.089844 7.457032 4.742188 17.355469 2.542969 22.089844-4.910156l26.496094-41.671875v81.078125h-80c-17.648438 0-32-14.351562-32-32zm288 32h-144v-81.078125l26.503906 41.664063c3.046875 4.796874 8.222656 7.414062 13.511719 7.414062 2.9375 0 5.914063-.808594 8.570313-2.503906 7.453124-4.742188 9.652343-14.632813 4.910156-22.089844l-20.023438-31.484375c20.207032-.617187 37.269532-13.753906 43.726563-31.929687h98.800781v88c0 17.65625-14.351562 32.007812-32 32.007812zm0 0" fill="#012e52"/></svg>