<svg height="383pt" viewBox="-16 0 383 383.98601" width="383pt" xmlns="http://www.w3.org/2000/svg"><path d="m331.191406 148.144531c10.800782 9.839844 3.839844 27.839844-10.71875 27.839844h-24c-8.800781 0-16 7.203125-16 16v160c0 8.800781-7.199218 16-16 16h-176c-8.800781 0-16-7.199219-16-16v-160c0-8.796875-7.199218-16-16-16h-24c-14.558594 0-21.519531-18-10.71875-27.839844l143.917969-128c6.160156-5.519531 15.441406-5.519531 21.601563 0zm0 0" fill="#4dd0e1"/><g fill="#012e52"><path d="m350.265625 171.554688c4.816406-12.433594 1.550781-26.265626-8.441406-35.359376l-143.871094-127.960937c-12.222656-10.96875-30.703125-10.976563-42.910156-.039063l-144.066407 128.125c-9.847656 8.976563-13.105468 22.808594-8.289062 35.234376 4.808594 12.414062 16.496094 20.429687 29.785156 20.429687h24v160c0 17.648437 14.351563 32 32 32h176c17.648438 0 32-14.351563 32-32v-160h24c13.289063 0 24.976563-8.015625 29.792969-20.429687zm-85.792969 20.429687v160h-176v-160c0-17.644531-14.351562-32-32-32l-24.085937.121094 144.246093-128 143.839844 127.878906h-24c-17.648437 0-32 14.355469-32 32zm0 0"/><path d="m144.472656 191.984375c8.832032 0 16-7.167969 16-16s-7.167968-16-16-16h-8c-8.832031 0-16 7.167969-16 16s7.167969 16 16 16zm0 0"/><path d="m216.472656 255.984375h-8c-8.832031 0-16 7.167969-16 16s7.167969 16 16 16h8c8.832032 0 16-7.167969 16-16s-7.167968-16-16-16zm0 0"/><path d="m219.785156 180.675781c-6.25-6.25-16.375-6.25-22.625 0l-64 64c-6.246094 6.246094-6.246094 16.375 0 22.621094 3.121094 3.128906 7.21875 4.6875 11.3125 4.6875 4.097656 0 8.191406-1.558594 11.3125-4.6875l64-64c6.246094-6.246094 6.246094-16.375 0-22.621094zm0 0"/></g></svg>