<svg height="384pt" viewBox="0 -23 384 383" width="384pt" xmlns="http://www.w3.org/2000/svg"><path d="m368 48.503906v176c0 20.398438-18.800781 35.519532-38.71875 31.28125l-185.28125-55.28125v-128l185.28125-55.28125c19.917969-4.238281 38.71875 10.882813 38.71875 31.28125zm0 0" fill="#4dd0e1"/><path d="m144 200.503906v104c0 8.800782-7.199219 16-16 16h-32c-8.800781 0-16-7.199218-16-16v-104zm0 0" fill="#e0f7fa"/><path d="m144 176.503906v24h-64c-35.359375 0-64-28.640625-64-64 0-17.679687 7.199219-33.679687 18.71875-45.28125 11.601562-11.519531 27.601562-18.71875 45.28125-18.71875h64zm0 0" fill="#ff7043"/><path d="m366.214844 11.222656c-11.328125-9.175781-25.984375-12.703125-40.269532-9.648437-.417968.089843-.832031.195312-1.242187.3125l-183.054687 54.617187h-61.648438c-21.289062 0-41.375 8.296875-56.640625 23.449219-15.0625 15.175781-23.359375 35.261719-23.359375 56.550781 0 38.632813 27.527344 70.953125 64 78.382813v89.617187c0 17.648438 14.351562 32 32 32h32c17.648438 0 32-14.351562 32-32v-82.527344l164.703125 49.144532c.417969.117187.832031.222656 1.242187.3125 3.367188.71875 6.75 1.070312 10.109376 1.070312 10.890624 0 21.503906-3.710937 30.167968-10.71875 11.289063-9.136718 17.777344-22.738281 17.777344-37.28125v-176c0-14.542968-6.488281-28.144531-17.785156-37.28125zm-334.214844 125.28125c0-12.792968 5-24.863281 13.992188-33.921875 9.144531-9.078125 21.214843-14.078125 34.007812-14.078125h48v96h-48c-26.472656 0-48-21.527344-48-48zm64 168v-88h32v88zm256-80c0 6.632813-3.703125 10.625-5.910156 12.414063-3.648438 2.945312-8.347656 4.160156-12.945313 3.320312l-173.144531-51.664062v-104.140625l173.144531-51.664063c4.589844-.832031 9.296875.375 12.945313 3.316407 2.207031 1.792968 5.910156 5.785156 5.910156 12.417968zm0 0" fill="#012e52"/></svg>