<svg height="383pt" viewBox="0 0 383 383.976" width="383pt" xmlns="http://www.w3.org/2000/svg"><path d="m368.445312 48v113.121094c0 8.480468-3.359374 16.640625-9.359374 22.640625l-174.882813 174.878906c-12.480469 12.480469-32.71875 12.480469-45.277344 0l-28.960937-28.960937c11.121094-7.039063 18.480468-19.519532 18.480468-33.679688 0-22.078125-17.921874-40-40-40-14.160156 0-26.640624 7.359375-33.679687 18.480469l-28.960937-28.960938c-12.480469-12.558593-12.480469-32.800781 0-45.28125l174.878906-174.878906c6-6 14.160156-9.359375 22.640625-9.359375h113.121093c17.679688 0 32 14.320312 32 32zm-65.359374 82.878906c12.238281-12.238281 12.476562-32.078125.636718-44.640625l-4.078125-4.238281c-12.320312-13.121094-33.121093-13.359375-45.839843-.640625-12.242188 12.242187-12.480469 32-.640626 44.640625l4.078126 4.238281c6.242187 6.640625 14.722656 10 23.203124 10 8.238282 0 16.398438-3.117187 22.640626-9.359375zm0 0" fill="#4dd0e1"/><g fill="#012e52"><path d="m336.445312 0h-113.121093c-12.65625 0-25.023438 5.121094-33.953125 14.046875l-174.878906 174.882813c-18.664063 18.664062-18.679688 49.109374 0 67.902343l28.960937 28.960938c.023437.023437.0625.046875.085937.070312.410157.402344.890626.738281 1.335938 1.097657.410156.320312.792969.679687 1.226562.960937.039063.023437.0625.054687.101563.078125.335937.214844.695313.335938 1.050781.519531.550782.296875 1.101563.617188 1.679688.839844.488281.191406.992187.304687 1.488281.441406.492187.136719.980469.3125 1.484375.398438.554688.105469 1.113281.121093 1.664062.160156.472657.03125.929688.105469 1.402344.097656.542969-.007812 1.070313-.097656 1.617188-.152343.484375-.058594.972656-.082032 1.453125-.183594.503906-.105469.984375-.289063 1.480469-.441406.488281-.152344.984374-.28125 1.464843-.480469.511719-.214844.984375-.503907 1.472657-.773438.414062-.234375.847656-.425781 1.246093-.699219.5625-.375 1.074219-.839843 1.585938-1.292968.253906-.226563.542969-.402344.78125-.640625.027343-.023438.050781-.066407.074219-.089844.398437-.40625.742187-.894531 1.105468-1.351563.316406-.398437.671875-.785156.941406-1.207031.023438-.039062.058594-.066406.082032-.105469 4.382812-6.910156 11.917968-11.039062 20.167968-11.039062 13.230469 0 24 10.769531 24 24 0 8.246094-4.128906 15.785156-11.042968 20.160156-.039063.023438-.0625.054688-.101563.078125-.433593.28125-.816406.632813-1.226562.960938-.453125.359375-.933594.695312-1.335938 1.097656-.023437.023437-.0625.046875-.085937.070313-.25.25-.417969.527343-.640625.785156-.457031.519531-.917969 1.023437-1.296875 1.582031-.269532.402344-.472656.832031-.695313 1.257813-.261719.488281-.558593.960937-.765625 1.464843-.210937.488281-.339844.992188-.488281 1.496094-.152344.480469-.328125.949219-.433594 1.445313-.105469.503906-.136719 1.007812-.191406 1.523437-.054687.519531-.144531 1.023437-.152344 1.542969-.007812.496094.0625.976562.097657 1.472656.039062.535156.054687 1.070312.148437 1.597656.097656.519532.265625 1.015625.410156 1.527344.136719.488281.238281.976562.429688 1.457031.226562.578125.546875 1.128907.839843 1.679688.1875.34375.3125.710937.53125 1.046875.023438.035156.054688.058594.070313.089844.609375.945312 1.304687 1.839843 2.136719 2.664062l29 29c9.375 9.320312 21.664062 13.976562 33.945312 13.976562 12.300782 0 24.589844-4.664062 33.925782-14.007812l174.878906-174.878906c8.921875-8.9375 14.042968-21.3125 14.042968-33.96875v-113.121094c0-26.472656-21.53125-48-48-48zm16 161.121094c0 4.230468-1.707031 8.351562-4.671874 11.328125l-174.882813 174.878906c-6.230469 6.214844-16.40625 6.199219-22.65625 0l-17.335937-17.335937c7.371093-9.59375 11.546874-21.425782 11.546874-33.992188 0-30.878906-25.121093-56-56-56-12.570312 0-24.402343 4.175781-33.992187 11.542969l-17.304687-17.304688c-6.25-6.285156-6.265626-16.460937-.03125-22.6875l174.878906-174.878906c2.96875-2.96875 7.097656-4.671875 11.328125-4.671875h113.121093c8.824219 0 16 7.175781 16 16zm0 0"/><path d="m311.308594 71.046875c-8.921875-9.503906-21.03125-14.847656-34.105469-15.054687-13.199219-.265626-25.445313 4.785156-34.710937 14.054687-18.425782 18.433594-18.863282 47.816406-.847657 67.050781l3.945313 4.09375c8.980468 9.5625 21.6875 15.046875 34.855468 15.046875 12.839844 0 24.894532-4.992187 33.949219-14.046875 18.183594-18.175781 18.617188-48.199218.847657-67.046875zm-19.535156 48.519531c-6.136719 6.128906-16.824219 6.144532-23-.421875l-3.929688-4.082031c-5.992188-6.398438-5.871094-16.230469.28125-22.390625 3.085938-3.085937 7.375-4.75 11.582031-4.679687 4.335938.070312 8.335938 1.832031 11.417969 5.113281l3.960938 4.109375c5.894531 6.257812 5.75 16.28125-.3125 22.351562zm0 0"/></g></svg>