<svg height="384pt" viewBox="-70 0 384 384.07451" width="384pt" xmlns="http://www.w3.org/2000/svg"><path d="m202.160156 63.953125c22.558594-1.117187 34.078125 26.640625 17.359375 41.761719l-17.761719 16 17.761719 16c16.71875 15.199218 5.199219 42.960937-17.359375 41.839844h-.402344l-23.4375-1.28125 1.199219 23.921874c1.199219 22.480469-26.640625 34-41.761719 17.277344l-16-17.757812-16 17.757812c-15.117187 16.722656-42.957031 5.203125-41.757812-17.277344l1.199219-23.921874-23.441407 1.28125h-.398437c-22.558594 1.121093-34.082031-26.640626-17.359375-41.839844l17.757812-16-17.757812-16c-16.722656-15.121094-5.199219-42.878906 17.359375-41.761719l23.839844 1.203125-1.199219-23.839844c-1.199219-22.5625 26.640625-34.082031 41.757812-17.28125l16 17.679688 16-17.679688c15.121094-16.800781 42.960938-5.28125 41.761719 17.28125l-1.199219 23.839844zm0 0" fill="#ff7043"/><path d="m201.757812 179.554688v172.480468c0 13.359375-15.519531 20.878906-26 12.480469l-44-40.960937c-5.839843-4.71875-14.160156-4.71875-20 0l-44 40.960937c-10.480468 8.398437-26 .878906-26-12.480469v-172.480468l23.441407-1.28125-1.199219 23.921874c-1.199219 22.480469 26.640625 34 41.757812 17.277344l16-17.757812 16 17.757812c15.121094 16.722656 42.960938 5.203125 41.761719-17.277344l-1.199219-23.921874zm0 0" fill="#4dd0e1"/><path d="m240.359375 72.652344c-6.550781-15.832032-21.671875-25.609375-39.007813-24.675782l-6.167968.304688.304687-6.117188c.910157-17.136718-8.738281-32.457031-24.59375-39.027343-15.863281-6.605469-33.542969-2.574219-45 10.160156l-4.136719 4.570313-4.109374-4.535157c-11.488282-12.777343-29.175782-16.753906-45.035157-10.183593-15.847656 6.566406-25.503906 21.886718-24.597656 38.972656l.3125 6.167968-6.167969-.300781c-17.21875-.976562-32.449218 8.832031-39 24.671875-6.546875 15.824219-2.578125 33.453125 10.136719 44.949219l4.558594 4.113281-4.625 4.167969c-12.679688 11.527344-16.632813 29.199219-10.054688 45.023437 4.382813 10.558594 12.703125 18.289063 22.582031 22.074219v159.046875c0 12.40625 6.960938 23.464844 18.167969 28.832032 11.191407 5.382812 24.167969 3.878906 33.839844-3.871094.304687-.25.601563-.503906.890625-.777344l43.101562-40.113281 43.105469 40.121093c.28125.265626.574219.519532.878907.769532 5.832031 4.671875 12.832031 7.078125 19.945312 7.078125 4.695312 0 9.441406-1.054688 13.894531-3.191407 11.21875-5.382812 18.175781-16.441406 18.175781-28.847656v-159.128906c10-3.816406 18.234376-11.535156 22.578126-22 6.566406-15.824219 2.625-33.496094-10.113282-45.078125l-4.558594-4.113281 4.582032-4.136719c12.6875-11.472656 16.664062-29.105469 10.113281-44.925781zm-187.894531 37.175781-17.738282-15.976563c-3.75-3.394531-2.65625-7.394531-2.007812-8.953124.65625-1.574219 2.753906-5.246094 7.839844-4.960938l23.839844 1.191406c4.496093.28125 8.921874-1.46875 12.121093-4.664062 3.191407-3.199219 4.886719-7.597656 4.664063-12.117188l-1.207032-23.882812c-.273437-5.0625 3.335938-7.117188 4.894532-7.765625 1.566406-.640625 5.59375-1.761719 9.023437 2.070312l16 17.679688c6.074219 6.707031 17.664063 6.707031 23.71875 0l16.035157-17.710938c3.414062-3.785156 7.4375-2.671875 9-2.03125 1.550781.640625 5.160156 2.695313 4.886718 7.808594l-1.191406 23.832031c-.226562 4.519532 1.472656 8.917969 4.664062 12.117188 3.191407 3.203125 7.503907 4.945312 12.121094 4.664062l23.832032-1.191406c5.214843-.160156 7.191406 3.386719 7.839843 4.960938.636719 1.558593 1.742188 5.550781-1.992187 8.929687l-17.761719 16c-3.367187 3.039063-5.289063 7.359375-5.289063 11.886719s1.921876 8.847656 5.289063 11.886718l17.703125 15.945313c3.808594 3.464844 2.6875 7.503906 2.042969 9.078125-.632813 1.523438-2.59375 4.960938-7.339844 4.960938-.300781 0-.621094-.015626-1.183594-.03125l-23.070312-1.257813c-4.625-.292969-8.953125 1.441406-12.167969 4.632813-3.207031 3.199218-4.914062 7.617187-4.6875 12.144531l1.191406 23.96875c.265625 5.007812-3.328125 7.054687-4.878906 7.695312-1.570312.664063-5.625 1.769531-9.007812-1.976562l-16-17.757813c-3.042969-3.371094-7.363282-5.289062-11.890626-5.289062-4.527343 0-8.847656 1.917968-11.886718 5.289062l-15.984375 17.734375c-3.414063 3.792969-7.449219 2.664063-9.03125 2-1.550781-.640625-5.152344-2.695312-4.878907-7.742187l1.199219-23.914063c.222657-4.527343-1.480469-8.945312-4.6875-12.144531-3.210937-3.199219-7.609375-4.933594-12.167969-4.640625l-23.074218 1.257813c-.261719.007812-.535156.015624-.6875.023437-4.976563.199219-7.183594-3.382813-7.839844-4.953125-.65625-1.574219-1.769531-5.613281 1.976562-9.023438l17.757813-16c3.386719-3.039062 5.304687-7.359374 5.304687-11.886718s-1.917968-8.847656-5.292968-11.886719zm90.191406 202.023437c-.265625-.25-.546875-.496093-.832031-.730468-11.625-9.40625-28.503907-9.40625-40.128907 0-.289062.234375-.566406.480468-.832031.730468l-43.105469 40.109376v-122.238282c3.945313 4.480469 8.945313 8.121094 14.808594 10.558594 15.863282 6.625 33.5625 2.640625 45.082032-10.101562l4.109374-4.5625 4.136719 4.585937c7.816407 8.632813 18.464844 13.230469 29.472657 13.230469 5.199218 0 10.496093-1.03125 15.59375-3.160156 5.863281-2.4375 10.863281-6.085938 14.804687-10.566407l.007813 122.253907zm0 0" fill="#012e52"/></svg>