<svg height="384pt" viewBox="0 0 384 384" width="384pt" xmlns="http://www.w3.org/2000/svg"><path d="m368 192v144c0 17.679688-14.320312 32-32 32h-288c-17.679688 0-32-14.320312-32-32v-144c0-17.679688 14.320312-32 32-32h288c17.679688 0 32 14.320312 32 32zm0 0" fill="#4dd0e1"/><path d="m232 56c0 9.519531-3.359375 18.320312-8.960938 25.199219-7.359374 9.039062-18.480468 14.800781-31.039062 14.800781s-23.679688-5.761719-31.039062-14.800781c-5.601563-6.878907-8.960938-15.679688-8.960938-25.199219 0-22.078125 17.921875-40 40-40s40 17.921875 40 40zm0 0" fill="#ff7043"/><g fill="#012e52"><path d="m336 144h-10.320312l-82.078126-66.703125c2.773438-6.738281 4.398438-13.9375 4.398438-21.296875 0-30.871094-25.121094-56-56-56s-56 25.128906-56 56c0 7.359375 1.625 14.558594 4.40625 21.296875l-82.085938 66.703125h-10.320312c-26.472656 0-48 21.527344-48 48v144c0 26.472656 21.527344 48 48 48h288c26.472656 0 48-21.527344 48-48v-144c0-26.472656-21.527344-48-48-48zm-144-112c13.230469 0 24 10.769531 24 24 0 5.480469-1.902344 10.839844-5.359375 15.089844-.007813.007812-.015625.015625-.023437.023437 0 0 0 .007813-.007813.007813-4.601563 5.640625-11.386719 8.878906-18.609375 8.878906s-14.007812-3.238281-18.617188-8.878906c0 0 0-.007813-.007812-.007813-.007812-.007812-.015625-.015625-.023438-.023437-3.449218-4.257813-5.351562-9.609375-5.351562-15.089844 0-13.230469 10.769531-24 24-24zm-31.503906 70.191406c9.191406 6.296875 20.078125 9.808594 31.503906 9.808594s22.3125-3.511719 31.503906-9.800781l51.441406 41.800781h-165.890624zm191.503906 233.808594c0 8.824219-7.175781 16-16 16h-288c-8.824219 0-16-7.175781-16-16v-144c0-8.824219 7.175781-16 16-16h288c8.824219 0 16 7.175781 16 16zm0 0"/><path d="m160 232c8.832031 0 16-7.167969 16-16s-7.167969-16-16-16h-8c-8.832031 0-16 7.167969-16 16s7.167969 16 16 16zm0 0"/><path d="m232 296h-8c-8.832031 0-16 7.167969-16 16s7.167969 16 16 16h8c8.832031 0 16-7.167969 16-16s-7.167969-16-16-16zm0 0"/><path d="m235.3125 220.6875c-6.242188-6.246094-16.382812-6.246094-22.625 0l-64 64c-6.246094 6.25-6.246094 16.375 0 22.625 3.121094 3.128906 7.214844 4.6875 11.3125 4.6875s8.191406-1.558594 11.3125-4.6875l64-64c6.246094-6.25 6.246094-16.375 0-22.625zm0 0"/></g></svg>