<svg height="384pt" viewBox="-48 0 384 384" width="384pt" xmlns="http://www.w3.org/2000/svg"><path d="m272 112v192c0 35.359375-28.640625 64-64 64h-128c-35.359375 0-64-28.640625-64-64v-192zm0 0" fill="#4dd0e1"/><g fill="#012e52"><path d="m112 208c8.832031 0 16-7.167969 16-16s-7.167969-16-16-16h-8c-8.832031 0-16 7.167969-16 16s7.167969 16 16 16zm0 0"/><path d="m184 272h-8c-8.832031 0-16 7.167969-16 16s7.167969 16 16 16h8c8.832031 0 16-7.167969 16-16s-7.167969-16-16-16zm0 0"/><path d="m187.3125 196.6875c-6.25-6.246094-16.375-6.246094-22.625 0l-64 64c-6.246094 6.25-6.246094 16.375 0 22.625 3.128906 3.128906 7.214844 4.6875 11.3125 4.6875s8.183594-1.558594 11.3125-4.6875l64-64c6.246094-6.25 6.246094-16.375 0-22.625zm0 0"/><path d="m192 0h-96c-26.472656 0-48 21.527344-48 48v48h-32c-8.832031 0-16 7.167969-16 16v192c0 44.113281 35.886719 80 80 80h128c44.113281 0 80-35.886719 80-80v-192c0-8.832031-7.167969-16-16-16h-32v-48c0-26.472656-21.527344-48-48-48zm-112 48c0-8.824219 7.175781-16 16-16h96c8.824219 0 16 7.175781 16 16v48h-128zm176 256c0 26.472656-21.527344 48-48 48h-128c-26.472656 0-48-21.527344-48-48v-176h224zm0 0"/></g></svg>