<svg height="384pt" viewBox="0 0 384 384" width="384pt" xmlns="http://www.w3.org/2000/svg"><path d="m80 192h-48c-8.800781 0-16-7.199219-16-16v-96c0-35.359375 28.640625-64 64-64h17.121094c7.757812 0 14.71875 5.359375 15.917968 12.960938 6.242188 38 39.199219 67.039062 78.960938 67.039062s72.71875-29.039062 78.960938-67.039062c1.199218-7.601563 8.160156-12.960938 15.917968-12.960938h16c36.480469 0 65.121094 28.640625 65.121094 64v96c0 8.800781-7.199219 16-16 16h-48v160c0 8.800781-7.199219 16-16 16h-192c-8.800781 0-16-7.199219-16-16zm0 0" fill="#4dd0e1"/><g fill="#012e52"><path d="m302.878906 0h-16c-15.703125 0-29.34375 11.375-31.703125 26.367188-5.113281 31.082031-31.671875 53.632812-63.175781 53.632812s-58.0625-22.550781-63.160156-53.527344c-2.375-15.097656-16.015625-26.472656-31.71875-26.472656h-17.121094c-44.113281 0-80 35.886719-80 80v96c0 17.648438 14.351562 32 32 32h32v144c0 17.648438 14.351562 32 32 32h192c17.648438 0 32-14.351562 32-32v-144h32c17.648438 0 32-14.351562 32-32v-96c0-44.113281-36.390625-80-81.121094-80zm49.121094 176h-32v-48c0-8.832031-7.167969-16-16-16s-16 7.167969-16 16v224h-192v-224c0-8.832031-7.167969-16-16-16s-16 7.167969-16 16v48h-32v-96c0-26.472656 21.527344-48 48-48l17.246094-.449219c7.65625 46.617188 47.507812 80.449219 94.753906 80.449219s87.097656-33.832031 94.878906-80h16c27.546875 0 49.121094 21.089844 49.121094 48zm0 0"/><path d="m160 192c8.832031 0 16-7.167969 16-16s-7.167969-16-16-16h-8c-8.832031 0-16 7.167969-16 16s7.167969 16 16 16zm0 0"/><path d="m232 256h-8c-8.832031 0-16 7.167969-16 16s7.167969 16 16 16h8c8.832031 0 16-7.167969 16-16s-7.167969-16-16-16zm0 0"/><path d="m235.3125 180.6875c-6.242188-6.246094-16.382812-6.246094-22.625 0l-64 64c-6.246094 6.25-6.246094 16.375 0 22.625 3.121094 3.128906 7.214844 4.6875 11.3125 4.6875s8.191406-1.558594 11.3125-4.6875l64-64c6.246094-6.25 6.246094-16.375 0-22.625zm0 0"/></g></svg>