<svg height="384pt" viewBox="0 -16 384 384" width="384pt" xmlns="http://www.w3.org/2000/svg"><path d="m368 248v56c0 17.679688-14.320312 32-32 32h-288c-17.679688 0-32-14.320312-32-32v-256c0 17.679688 14.320312 32 32 32h288c17.679688 0 32 14.320312 32 32v56h-104c-11.039062 0-21.039062 4.480469-28.320312 11.679688-7.199219 7.28125-11.679688 17.28125-11.679688 28.320312 0 22.078125 17.921875 40 40 40zm0 0" fill="#4dd0e1"/><path d="m368 168v80h-104c11.039062 0 21.039062-4.480469 28.320312-11.679688 7.199219-7.28125 11.679688-17.28125 11.679688-28.320312 0-22.078125-17.921875-40-40-40zm0 0" fill="#e0f7fa"/><path d="m320 48v32h-272c-17.679688 0-32-14.320312-32-32 0-8.800781 3.601562-16.800781 9.359375-22.640625 5.839844-5.757813 13.839844-9.359375 22.640625-9.359375h240c17.679688 0 32 14.320312 32 32zm0 0" fill="#ff7043"/><path d="m264 168c22.078125 0 40 17.921875 40 40 0 11.039062-4.480469 21.039062-11.679688 28.320312-7.28125 7.199219-17.28125 11.679688-28.320312 11.679688-22.078125 0-40-17.921875-40-40 0-11.039062 4.480469-21.039062 11.679688-28.320312 7.28125-7.199219 17.28125-11.679688 28.320312-11.679688zm0 0" fill="#e0f7fa"/><path d="m336 64v-16c0-26.472656-21.527344-48-48-48h-240c-12.710938 0-24.734375 4.960938-34.039062 14.136719-9 9.128906-13.960938 21.160156-13.960938 33.863281v256c0 26.472656 21.527344 48 48 48h288c26.472656 0 48-21.527344 48-48v-192c0-26.472656-21.527344-48-48-48zm-96 144c0-6.40625 2.503906-12.472656 6.9375-16.945312 4.589844-4.550782 10.65625-7.054688 17.0625-7.054688 13.230469 0 24 10.769531 24 24 0 6.40625-2.503906 12.472656-6.9375 16.945312-4.589844 4.550782-10.65625 7.054688-17.0625 7.054688-13.230469 0-24-10.769531-24-24zm74.519531-24h37.480469v48h-37.441406c3.519531-7.433594 5.441406-15.566406 5.441406-24 0-8.59375-2.007812-16.710938-5.480469-24zm-277.925781-147.246094c3.109375-3.066406 7.160156-4.753906 11.40625-4.753906h240c8.824219 0 16 7.175781 16 16v16h-256c-8.824219 0-16-7.175781-16-16 0-4.238281 1.6875-8.296875 4.59375-11.246094zm299.40625 283.246094h-288c-8.824219 0-16-7.175781-16-16v-210.800781c5.015625 1.785156 10.382812 2.800781 16 2.800781h288c8.824219 0 16 7.175781 16 16v40h-88c-14.886719 0-28.945312 5.792969-39.695312 16.433594-10.511719 10.628906-16.304688 24.6875-16.304688 39.566406 0 30.871094 25.121094 56 56 56h88v40c0 8.824219-7.175781 16-16 16zm0 0" fill="#012e52"/></svg>