<?xml version="1.0" encoding="iso-8859-1"?>
<!-- Generator: Adobe Illustrator 17.1.0, SVG Export Plug-In . SVG Version: 6.00 Build 0)  -->
<!DOCTYPE svg PUBLIC "-//W3C//DTD SVG 1.1//EN" "http://www.w3.org/Graphics/SVG/1.1/DTD/svg11.dtd">
<svg version="1.1" id="Capa_1" xmlns="http://www.w3.org/2000/svg" xmlns:xlink="http://www.w3.org/1999/xlink" x="0px" y="0px"
	 viewBox="0 0 331.293 331.293" style="enable-background:new 0 0 331.293 331.293;" xml:space="preserve">
<g>
	<path d="M234.924,181.58H184.81c-4.419,0-8-3.581-8-8c0-4.418,3.581-8,8-8h50.114c4.419,0,8,3.582,8,8
		C242.924,177.999,239.343,181.58,234.924,181.58z"/>
	<path d="M234.924,205.915H184.81c-4.419,0-8-3.582-8-8c0-4.419,3.581-8,8-8h50.114c4.419,0,8,3.581,8,8
		C242.924,202.333,239.343,205.915,234.924,205.915z"/>
	<path d="M234.924,230.249H184.81c-4.419,0-8-3.582-8-8c0-4.418,3.581-8,8-8h50.114c4.419,0,8,3.582,8,8
		C242.924,226.668,239.343,230.249,234.924,230.249z"/>
	<path d="M234.924,254.584H184.81c-4.419,0-8-3.582-8-8c0-4.418,3.581-8,8-8h50.114c4.419,0,8,3.582,8,8
		C242.924,251.002,239.343,254.584,234.924,254.584z"/>
	<path d="M234.924,278.919H184.81c-4.419,0-8-3.582-8-8c0-4.419,3.581-8,8-8h50.114c4.419,0,8,3.581,8,8
		C242.924,275.337,239.343,278.919,234.924,278.919z"/>
	<path d="M122.638,127.063h68.852c5.5,0,10-4.339,10-9.642c0-5.303-4.5-9.642-10-9.642h-68.852c-5.5,0-10,4.339-10,9.642
		C112.638,122.725,117.138,127.063,122.638,127.063z"/>
	<path d="M319.413,167.869l-33.476-17.547l-0.028-68.599c-0.001-2.505-1.176-4.865-3.174-6.377L185.273,1.62
		c-3.044-2.303-7.292-2.134-10.144,0.404L92.267,75.75c-1.706,1.518-2.682,3.693-2.682,5.977v91.531l-14.199-7.385
		c-2.313-1.204-5.069-1.204-7.383,0L7.474,197.354c-2.647,1.377-4.309,4.113-4.309,7.097v118.842c0,4.419,3.582,8,8,8h86.419h34.639
		h34.302h88.073h5h18.409h37.12c7.168,0,13-5.831,13-13V182.275C328.128,176.574,324.463,170.515,319.413,167.869z M63.695,315.293
		H19.166v-36.477l44.529-25.482V315.293z M63.695,234.899l-44.529,25.482v-13.904l44.529-25.483V234.899z M63.695,202.56
		l-44.529,25.483v-18.735l44.529-23.16V202.56z M178.472,20.465l26.164,53.261h-86.025L178.472,20.465z M124.223,315.293H79.695
		v-61.959l44.529,25.482V315.293z M124.223,260.382l-44.529-25.482v-13.905l44.529,25.483V260.382z M124.223,228.043L79.695,202.56
		v-16.413l44.529,23.16V228.043z M153.526,315.293h-13.302v-39.867h13.302V315.293z M153.526,256.143h-13.302v-17.807h13.302
		V256.143z M153.526,219.052h-13.302v-14.601c0-1.124-0.236-2.212-0.671-3.206h13.974V219.052z M154.849,144.87h-32.211
		c-5.5,0-10,4.339-10,9.642c0,5.303,4.5,9.642,10,9.642h30.888v17.807h-30.888c-3.41,0-6.433,1.67-8.24,4.202l-8.813-4.584V89.726
		h103.894v47.822h-42.954C161.395,137.548,156.962,140.543,154.849,144.87z M251.599,315.293h-82.073V153.548h82.073V315.293z"/>
</g>
<g>
</g>
<g>
</g>
<g>
</g>
<g>
</g>
<g>
</g>
<g>
</g>
<g>
</g>
<g>
</g>
<g>
</g>
<g>
</g>
<g>
</g>
<g>
</g>
<g>
</g>
<g>
</g>
<g>
</g>
</svg>
