<?xml version="1.0" encoding="iso-8859-1"?>
<!-- Generator: Adobe Illustrator 19.0.0, SVG Export Plug-In . SVG Version: 6.00 Build 0)  -->
<svg version="1.1" id="Capa_1" xmlns="http://www.w3.org/2000/svg" xmlns:xlink="http://www.w3.org/1999/xlink" x="0px" y="0px"
	 viewBox="0 0 490 490" style="enable-background:new 0 0 490 490;" xml:space="preserve">
<g>
	<path d="M242.771,318.057c-10.232,0-19.505-3.304-26.112-6.915l-4.726,18.403c5.981,3.458,16.201,6.288,26.74,6.762v14.933h15.419
		v-16.034c18.083-3.15,27.995-15.1,27.995-29.097c0-14.164-7.556-22.809-26.266-29.417c-13.37-5.033-18.878-8.337-18.878-13.524
		c0-4.405,3.305-8.81,13.524-8.81c11.334,0,18.57,3.623,22.656,5.353l4.559-17.775c-5.187-2.523-12.269-4.713-22.809-5.187v-13.844
		h-15.407v14.946c-16.828,3.304-26.587,14.151-26.587,27.995c0,15.253,11.488,23.116,28.316,28.776
		c11.641,3.932,16.674,7.71,16.674,13.691C257.87,314.599,251.736,318.057,242.771,318.057z"/>
	<path d="M0,184.283h490L245,21.518L0,184.283z M100.537,153.933L245,57.945l144.463,95.988H100.537z"/>
	<ellipse cx="245" cy="113.915" rx="21.504" ry="21.309"/>
	<path d="M20.496,468.482h449.009V385.61H20.496V468.482z M50.847,415.961h388.307v22.17H50.847V415.961z"/>
	<rect x="69.845" y="207.343" width="45.526" height="155.548"/>
	<rect x="139.409" y="207.343" width="45.526" height="155.548"/>
	<rect x="305.064" y="207.343" width="45.526" height="155.548"/>
	<rect x="374.628" y="207.343" width="45.526" height="155.548"/>
</g>
<g>
</g>
<g>
</g>
<g>
</g>
<g>
</g>
<g>
</g>
<g>
</g>
<g>
</g>
<g>
</g>
<g>
</g>
<g>
</g>
<g>
</g>
<g>
</g>
<g>
</g>
<g>
</g>
<g>
</g>
</svg>
